<?xml version="1.0" encoding="utf-8" standalone="no"?>
<!DOCTYPE svg PUBLIC "-//W3C//DTD SVG 1.1//EN"
  "http://www.w3.org/Graphics/SVG/1.1/DTD/svg11.dtd">
<svg xmlns:xlink="http://www.w3.org/1999/xlink" width="401.093443pt" height="281.481875pt" viewBox="0 0 401.093443 281.481875" xmlns="http://www.w3.org/2000/svg" version="1.1">
 <metadata>
  <rdf:RDF xmlns:dc="http://purl.org/dc/elements/1.1/" xmlns:cc="http://creativecommons.org/ns#" xmlns:rdf="http://www.w3.org/1999/02/22-rdf-syntax-ns#">
   <cc:Work>
    <dc:type rdf:resource="http://purl.org/dc/dcmitype/StillImage"/>
    <dc:date>2025-04-18T16:47:56.699620</dc:date>
    <dc:format>image/svg+xml</dc:format>
    <dc:creator>
     <cc:Agent>
      <dc:title>Matplotlib v3.10.0, https://matplotlib.org/</dc:title>
     </cc:Agent>
    </dc:creator>
   </cc:Work>
  </rdf:RDF>
 </metadata>
 <defs>
  <style type="text/css">*{stroke-linejoin: round; stroke-linecap: butt}</style>
 </defs>
 <g id="figure_1">
  <g id="patch_1">
   <path d="M 0 281.481875 
L 401.093443 281.481875 
L 401.093443 0 
L 0 0 
z
" style="fill: #ffffff"/>
  </g>
  <g id="axes_1">
   <g id="patch_2">
    <path d="M 51.2 228.96 
L 386 228.96 
L 386 7.2 
L 51.2 7.2 
z
" style="fill: #ffffff"/>
   </g>
   <g id="patch_3">
    <path d="M 51.2 228.96 
L 51.2 228.96 
L 63.157143 228.96 
L 63.157143 228.96 
L 75.114286 228.96 
L 75.114286 228.96 
L 87.071429 228.96 
L 87.071429 228.96 
L 99.028571 228.96 
L 99.028571 228.96 
L 110.985714 228.96 
L 110.985714 228.96 
L 122.942857 228.96 
L 122.942857 228.96 
L 134.9 228.96 
L 134.9 228.96 
L 146.857143 228.96 
L 146.857143 228.96 
L 158.814286 228.96 
L 158.814286 228.96 
L 170.771429 228.96 
L 170.771429 228.96 
L 182.728571 228.96 
L 182.728571 228.96 
L 194.685714 228.96 
L 194.685714 228.96 
L 206.642857 228.96 
L 206.642857 228.96 
L 218.6 228.96 
L 218.6 228.96 
L 230.557143 228.96 
L 230.557143 228.96 
L 242.514286 228.96 
L 242.514286 228.96 
L 254.471429 228.96 
L 254.471429 228.96 
L 266.428571 228.96 
L 266.428571 228.96 
L 278.385714 228.96 
L 278.385714 208.845714 
L 290.342857 208.845714 
L 290.342857 218.902857 
L 302.3 218.902857 
L 302.3 208.845714 
L 314.257143 208.845714 
L 314.257143 183.702857 
L 326.214286 183.702857 
L 326.214286 183.702857 
L 338.171429 183.702857 
L 338.171429 183.702857 
L 350.128571 183.702857 
L 350.128571 228.96 
L 362.085714 228.96 
L 362.085714 228.96 
L 374.042857 228.96 
L 374.042857 228.96 
L 386 228.96 
L 386 228.96 
" clip-path="url(#pf325dec06b)" style="fill: none; stroke: #348abd; stroke-width: 1.2; stroke-linejoin: miter"/>
   </g>
   <g id="patch_4">
    <path d="M 51.2 228.96 
L 51.2 228.96 
L 63.157143 228.96 
L 63.157143 228.96 
L 75.114286 228.96 
L 75.114286 218.902857 
L 87.071429 218.902857 
L 87.071429 223.931429 
L 99.028571 223.931429 
L 99.028571 213.874286 
L 110.985714 213.874286 
L 110.985714 213.874286 
L 122.942857 213.874286 
L 122.942857 173.645714 
L 134.9 173.645714 
L 134.9 143.474286 
L 146.857143 143.474286 
L 146.857143 17.76 
L 158.814286 17.76 
L 158.814286 98.217143 
L 170.771429 98.217143 
L 170.771429 148.502857 
L 182.728571 148.502857 
L 182.728571 213.874286 
L 194.685714 213.874286 
L 194.685714 218.902857 
L 206.642857 218.902857 
L 206.642857 213.874286 
L 218.6 213.874286 
L 218.6 228.96 
L 230.557143 228.96 
L 230.557143 228.96 
L 242.514286 228.96 
L 242.514286 223.931429 
L 254.471429 223.931429 
L 254.471429 228.96 
L 266.428571 228.96 
L 266.428571 228.96 
L 278.385714 228.96 
L 278.385714 228.96 
L 290.342857 228.96 
L 290.342857 228.96 
L 302.3 228.96 
L 302.3 228.96 
L 314.257143 228.96 
L 314.257143 228.96 
L 326.214286 228.96 
L 326.214286 228.96 
L 338.171429 228.96 
L 338.171429 228.96 
L 350.128571 228.96 
L 350.128571 228.96 
L 362.085714 228.96 
L 362.085714 228.96 
L 374.042857 228.96 
L 374.042857 228.96 
L 386 228.96 
L 386 228.96 
" clip-path="url(#pf325dec06b)" style="fill: none; stroke: #e24a33; stroke-width: 1.2; stroke-linejoin: miter"/>
   </g>
   <g id="patch_5">
    <path d="M 51.2 228.96 
L 51.2 7.2 
" style="fill: none; stroke: #000000; stroke-linejoin: miter; stroke-linecap: square"/>
   </g>
   <g id="patch_6">
    <path d="M 386 228.96 
L 386 7.2 
" style="fill: none; stroke: #000000; stroke-linejoin: miter; stroke-linecap: square"/>
   </g>
   <g id="patch_7">
    <path d="M 51.2 228.96 
L 386 228.96 
" style="fill: none; stroke: #000000; stroke-linejoin: miter; stroke-linecap: square"/>
   </g>
   <g id="patch_8">
    <path d="M 51.2 7.2 
L 386 7.2 
" style="fill: none; stroke: #000000; stroke-linejoin: miter; stroke-linecap: square"/>
   </g>
   <g id="matplotlib.axis_1">
    <g id="xtick_1">
     <g id="line2d_1">
      <defs>
       <path id="m8dec1b3d1d" d="M 0 0 
L 0 -6 
" style="stroke: #1a1a1a; stroke-width: 0.8"/>
      </defs>
      <g>
       <use xlink:href="#m8dec1b3d1d" x="116.80795" y="228.96" style="fill: #1a1a1a; stroke: #1a1a1a; stroke-width: 0.8"/>
      </g>
     </g>
     <g id="text_1">
      <!-- $\mathdefault{3.6}$ -->
      <g style="fill: #1a1a1a" transform="translate(107.20795 247.370937) scale(0.15 -0.15)">
       <defs>
        <path id="LatinModernMath-Regular-33" d="M 2925 1094 
C 2925 1619 2522 2118 1856 2253 
C 2381 2426 2752 2874 2752 3379 
C 2752 3904 2189 4262 1574 4262 
C 928 4262 442 3878 442 3392 
C 442 3181 582 3059 768 3059 
C 966 3059 1094 3200 1094 3386 
C 1094 3706 794 3706 698 3706 
C 896 4019 1318 4102 1549 4102 
C 1811 4102 2163 3962 2163 3386 
C 2163 3309 2150 2938 1984 2656 
C 1792 2349 1574 2330 1414 2323 
C 1363 2317 1210 2304 1165 2304 
C 1114 2298 1069 2291 1069 2227 
C 1069 2157 1114 2157 1222 2157 
L 1504 2157 
C 2029 2157 2266 1722 2266 1094 
C 2266 224 1824 38 1542 38 
C 1267 38 787 147 563 525 
C 787 493 986 634 986 877 
C 986 1107 813 1235 627 1235 
C 474 1235 269 1146 269 864 
C 269 282 864 -141 1562 -141 
C 2342 -141 2925 442 2925 1094 
z
" transform="scale(0.015625)"/>
        <path id="LatinModernMath-Regular-2e" d="M 1229 339 
C 1229 525 1075 678 890 678 
C 704 678 550 525 550 339 
C 550 154 704 0 890 0 
C 1075 0 1229 154 1229 339 
z
" transform="scale(0.015625)"/>
        <path id="LatinModernMath-Regular-36" d="M 2925 1306 
C 2925 2118 2355 2733 1645 2733 
C 1210 2733 973 2406 845 2099 
L 845 2253 
C 845 3872 1638 4102 1965 4102 
C 2118 4102 2387 4064 2528 3846 
C 2432 3846 2176 3846 2176 3558 
C 2176 3360 2330 3264 2470 3264 
C 2573 3264 2765 3322 2765 3571 
C 2765 3955 2483 4262 1952 4262 
C 1133 4262 269 3437 269 2022 
C 269 314 1011 -141 1606 -141 
C 2317 -141 2925 461 2925 1306 
z
M 2349 1312 
C 2349 1005 2349 685 2240 454 
C 2048 70 1754 38 1606 38 
C 1203 38 1011 422 973 518 
C 858 819 858 1331 858 1446 
C 858 1946 1062 2586 1638 2586 
C 1741 2586 2035 2586 2234 2189 
C 2349 1952 2349 1626 2349 1312 
z
" transform="scale(0.015625)"/>
       </defs>
       <use xlink:href="#LatinModernMath-Regular-33" transform="translate(0 0.40625)"/>
       <use xlink:href="#LatinModernMath-Regular-2e" transform="translate(49.999985 0.40625)"/>
       <use xlink:href="#LatinModernMath-Regular-36" transform="translate(77.799973 0.40625)"/>
      </g>
     </g>
    </g>
    <g id="xtick_2">
     <g id="line2d_2">
      <g>
       <use xlink:href="#m8dec1b3d1d" x="205.969781" y="228.96" style="fill: #1a1a1a; stroke: #1a1a1a; stroke-width: 0.8"/>
      </g>
     </g>
     <g id="text_2">
      <!-- $\mathdefault{3.8}$ -->
      <g style="fill: #1a1a1a" transform="translate(196.369781 247.370937) scale(0.15 -0.15)">
       <defs>
        <path id="LatinModernMath-Regular-38" d="M 2925 1075 
C 2925 1306 2854 1594 2611 1862 
C 2490 1997 2387 2061 1978 2317 
C 2438 2554 2752 2886 2752 3309 
C 2752 3898 2182 4262 1600 4262 
C 960 4262 442 3789 442 3194 
C 442 3078 454 2790 723 2490 
C 794 2413 1030 2253 1190 2144 
C 819 1958 269 1600 269 966 
C 269 288 922 -141 1594 -141 
C 2317 -141 2925 390 2925 1075 
z
M 2470 3309 
C 2470 2944 2221 2637 1837 2413 
L 1043 2925 
C 749 3117 723 3334 723 3443 
C 723 3834 1139 4102 1594 4102 
C 2061 4102 2470 3770 2470 3309 
z
M 2605 845 
C 2605 371 2125 38 1600 38 
C 1050 38 589 435 589 966 
C 589 1338 794 1747 1338 2048 
L 2125 1549 
C 2304 1427 2605 1235 2605 845 
z
" transform="scale(0.015625)"/>
       </defs>
       <use xlink:href="#LatinModernMath-Regular-33" transform="translate(0 0.40625)"/>
       <use xlink:href="#LatinModernMath-Regular-2e" transform="translate(49.999985 0.40625)"/>
       <use xlink:href="#LatinModernMath-Regular-38" transform="translate(77.799973 0.40625)"/>
      </g>
     </g>
    </g>
    <g id="xtick_3">
     <g id="line2d_3">
      <g>
       <use xlink:href="#m8dec1b3d1d" x="295.131612" y="228.96" style="fill: #1a1a1a; stroke: #1a1a1a; stroke-width: 0.8"/>
      </g>
     </g>
     <g id="text_3">
      <!-- $\mathdefault{4.0}$ -->
      <g style="fill: #1a1a1a" transform="translate(285.531612 247.370937) scale(0.15 -0.15)">
       <defs>
        <path id="LatinModernMath-Regular-34" d="M 3014 1056 
L 3014 1254 
L 2374 1254 
L 2374 4166 
C 2374 4294 2374 4333 2272 4333 
C 2214 4333 2195 4333 2144 4256 
L 179 1254 
L 179 1056 
L 1882 1056 
L 1882 499 
C 1882 269 1869 198 1395 198 
L 1261 198 
L 1261 0 
C 1523 19 1856 19 2125 19 
C 2394 19 2733 19 2995 0 
L 2995 198 
L 2861 198 
C 2387 198 2374 269 2374 499 
L 2374 1056 
L 3014 1056 
z
M 1920 1254 
L 358 1254 
L 1920 3642 
L 1920 1254 
z
" transform="scale(0.015625)"/>
        <path id="LatinModernMath-Regular-30" d="M 2944 2048 
C 2944 2560 2912 3072 2688 3546 
C 2394 4160 1869 4262 1600 4262 
C 1216 4262 749 4096 486 3501 
C 282 3059 250 2560 250 2048 
C 250 1568 275 992 538 506 
C 813 -13 1280 -141 1594 -141 
C 1939 -141 2426 -6 2707 602 
C 2912 1043 2944 1542 2944 2048 
z
M 2413 2125 
C 2413 1645 2413 1210 2342 800 
C 2246 192 1882 0 1594 0 
C 1344 0 966 160 851 774 
C 781 1158 781 1747 781 2125 
C 781 2534 781 2957 832 3302 
C 954 4064 1434 4122 1594 4122 
C 1805 4122 2227 4006 2349 3373 
C 2413 3014 2413 2528 2413 2125 
z
" transform="scale(0.015625)"/>
       </defs>
       <use xlink:href="#LatinModernMath-Regular-34" transform="translate(0 0.296875)"/>
       <use xlink:href="#LatinModernMath-Regular-2e" transform="translate(49.999985 0.296875)"/>
       <use xlink:href="#LatinModernMath-Regular-30" transform="translate(77.799973 0.296875)"/>
      </g>
     </g>
    </g>
    <g id="xtick_4">
     <g id="line2d_4">
      <g>
       <use xlink:href="#m8dec1b3d1d" x="384.293443" y="228.96" style="fill: #1a1a1a; stroke: #1a1a1a; stroke-width: 0.8"/>
      </g>
     </g>
     <g id="text_4">
      <!-- $\mathdefault{4.2}$ -->
      <g style="fill: #1a1a1a" transform="translate(374.693443 247.370937) scale(0.15 -0.15)">
       <defs>
        <path id="LatinModernMath-Regular-32" d="M 2874 1114 
L 2714 1114 
C 2682 922 2637 640 2573 544 
C 2528 493 2106 493 1965 493 
L 813 493 
L 1491 1152 
C 2490 2035 2874 2381 2874 3021 
C 2874 3750 2298 4262 1517 4262 
C 794 4262 320 3674 320 3104 
C 320 2746 640 2746 659 2746 
C 768 2746 992 2822 992 3085 
C 992 3251 877 3418 653 3418 
C 602 3418 589 3418 570 3411 
C 717 3827 1062 4064 1434 4064 
C 2016 4064 2291 3546 2291 3021 
C 2291 2509 1971 2003 1619 1606 
L 390 237 
C 320 166 320 154 320 0 
L 2694 0 
L 2874 1114 
z
" transform="scale(0.015625)"/>
       </defs>
       <use xlink:href="#LatinModernMath-Regular-34" transform="translate(0 0.296875)"/>
       <use xlink:href="#LatinModernMath-Regular-2e" transform="translate(49.999985 0.296875)"/>
       <use xlink:href="#LatinModernMath-Regular-32" transform="translate(77.799973 0.296875)"/>
      </g>
     </g>
    </g>
    <g id="xtick_5">
     <g id="line2d_5">
      <defs>
       <path id="m131efc0c90" d="M 0 0 
L 0 -3 
" style="stroke: #1a1a1a; stroke-width: 0.6"/>
      </defs>
      <g>
       <use xlink:href="#m131efc0c90" x="72.227035" y="228.96" style="fill: #1a1a1a; stroke: #1a1a1a; stroke-width: 0.6"/>
      </g>
     </g>
    </g>
    <g id="xtick_6">
     <g id="line2d_6">
      <g>
       <use xlink:href="#m131efc0c90" x="94.517492" y="228.96" style="fill: #1a1a1a; stroke: #1a1a1a; stroke-width: 0.6"/>
      </g>
     </g>
    </g>
    <g id="xtick_7">
     <g id="line2d_7">
      <g>
       <use xlink:href="#m131efc0c90" x="139.098408" y="228.96" style="fill: #1a1a1a; stroke: #1a1a1a; stroke-width: 0.6"/>
      </g>
     </g>
    </g>
    <g id="xtick_8">
     <g id="line2d_8">
      <g>
       <use xlink:href="#m131efc0c90" x="161.388865" y="228.96" style="fill: #1a1a1a; stroke: #1a1a1a; stroke-width: 0.6"/>
      </g>
     </g>
    </g>
    <g id="xtick_9">
     <g id="line2d_9">
      <g>
       <use xlink:href="#m131efc0c90" x="183.679323" y="228.96" style="fill: #1a1a1a; stroke: #1a1a1a; stroke-width: 0.6"/>
      </g>
     </g>
    </g>
    <g id="xtick_10">
     <g id="line2d_10">
      <g>
       <use xlink:href="#m131efc0c90" x="228.260239" y="228.96" style="fill: #1a1a1a; stroke: #1a1a1a; stroke-width: 0.6"/>
      </g>
     </g>
    </g>
    <g id="xtick_11">
     <g id="line2d_11">
      <g>
       <use xlink:href="#m131efc0c90" x="250.550696" y="228.96" style="fill: #1a1a1a; stroke: #1a1a1a; stroke-width: 0.6"/>
      </g>
     </g>
    </g>
    <g id="xtick_12">
     <g id="line2d_12">
      <g>
       <use xlink:href="#m131efc0c90" x="272.841154" y="228.96" style="fill: #1a1a1a; stroke: #1a1a1a; stroke-width: 0.6"/>
      </g>
     </g>
    </g>
    <g id="xtick_13">
     <g id="line2d_13">
      <g>
       <use xlink:href="#m131efc0c90" x="317.422069" y="228.96" style="fill: #1a1a1a; stroke: #1a1a1a; stroke-width: 0.6"/>
      </g>
     </g>
    </g>
    <g id="xtick_14">
     <g id="line2d_14">
      <g>
       <use xlink:href="#m131efc0c90" x="339.712527" y="228.96" style="fill: #1a1a1a; stroke: #1a1a1a; stroke-width: 0.6"/>
      </g>
     </g>
    </g>
    <g id="xtick_15">
     <g id="line2d_15">
      <g>
       <use xlink:href="#m131efc0c90" x="362.002985" y="228.96" style="fill: #1a1a1a; stroke: #1a1a1a; stroke-width: 0.6"/>
      </g>
     </g>
    </g>
    <g id="text_5">
     <!-- \Delta E, MeV -->
     <g style="fill: #1a1a1a" transform="translate(159.117031 269.781875) scale(0.18 -0.18)">
      <defs>
       <path id="LatinModernMath-Regular-5c" d="M 2842 -1472 
C 2842 -1459 2842 -1440 2835 -1427 
L 602 4717 
C 582 4768 538 4800 480 4800 
C 410 4800 352 4742 352 4672 
C 352 4659 352 4640 358 4627 
L 2592 -1517 
C 2611 -1568 2656 -1600 2714 -1600 
C 2784 -1600 2842 -1542 2842 -1472 
z
" transform="scale(0.015625)"/>
       <path id="LatinModernMath-Regular-44" d="M 4525 2150 
C 4525 3366 3661 4371 2566 4371 
L 224 4371 
L 224 4173 
L 378 4173 
C 870 4173 883 4102 883 3872 
L 883 499 
C 883 269 870 198 378 198 
L 224 198 
L 224 0 
L 2566 0 
C 3642 0 4525 947 4525 2150 
z
M 3885 2150 
C 3885 1440 3763 1056 3533 742 
C 3405 570 3040 198 2394 198 
L 1747 198 
C 1446 198 1434 243 1434 454 
L 1434 3917 
C 1434 4128 1446 4173 1747 4173 
L 2387 4173 
C 2784 4173 3226 4032 3552 3578 
C 3827 3200 3885 2650 3885 2150 
z
" transform="scale(0.015625)"/>
       <path id="LatinModernMath-Regular-65" d="M 2656 762 
C 2656 826 2605 838 2573 838 
C 2515 838 2502 800 2490 749 
C 2266 90 1690 90 1626 90 
C 1306 90 1050 282 902 518 
C 710 826 710 1248 710 1478 
L 2496 1478 
C 2637 1478 2656 1478 2656 1613 
C 2656 2246 2310 2867 1510 2867 
C 768 2867 179 2208 179 1408 
C 179 550 851 -70 1587 -70 
C 2368 -70 2656 640 2656 762 
z
M 2234 1613 
L 717 1613 
C 755 2566 1293 2726 1510 2726 
C 2170 2726 2234 1862 2234 1613 
z
" transform="scale(0.015625)"/>
       <path id="LatinModernMath-Regular-6c" d="M 1632 0 
L 1632 198 
C 1203 198 1133 198 1133 486 
L 1133 4442 
L 211 4371 
L 211 4173 
C 659 4173 710 4128 710 3814 
L 710 486 
C 710 198 640 198 211 198 
L 211 0 
L 922 19 
L 1632 0 
z
" transform="scale(0.015625)"/>
       <path id="LatinModernMath-Regular-74" d="M 2125 794 
L 2125 1158 
L 1965 1158 
L 1965 806 
C 1965 333 1773 90 1536 90 
C 1107 90 1107 672 1107 781 
L 1107 2560 
L 2022 2560 
L 2022 2758 
L 1107 2758 
L 1107 3936 
L 947 3936 
C 941 3411 749 2726 122 2701 
L 122 2560 
L 666 2560 
L 666 794 
C 666 6 1261 -70 1491 -70 
C 1946 -70 2125 384 2125 794 
z
" transform="scale(0.015625)"/>
       <path id="LatinModernMath-Regular-61" d="M 3091 570 
L 3091 928 
L 2931 928 
L 2931 570 
C 2931 198 2771 160 2701 160 
C 2490 160 2464 448 2464 480 
L 2464 1760 
C 2464 2029 2464 2278 2234 2515 
C 1984 2765 1664 2867 1357 2867 
C 832 2867 390 2566 390 2144 
C 390 1952 518 1843 685 1843 
C 864 1843 979 1971 979 2138 
C 979 2214 947 2426 653 2432 
C 826 2656 1139 2726 1344 2726 
C 1658 2726 2022 2477 2022 1907 
L 2022 1670 
C 1696 1651 1248 1632 845 1440 
C 365 1222 205 890 205 608 
C 205 90 826 -70 1229 -70 
C 1651 -70 1946 186 2067 486 
C 2093 230 2266 -38 2566 -38 
C 2701 -38 3091 51 3091 570 
z
M 2022 896 
C 2022 288 1562 70 1274 70 
C 960 70 698 294 698 614 
C 698 966 966 1498 2022 1536 
L 2022 896 
z
" transform="scale(0.015625)"/>
       <path id="LatinModernMath-Regular-20" transform="scale(0.015625)"/>
       <path id="LatinModernMath-Regular-45" d="M 4173 1651 
L 4013 1651 
C 3853 666 3706 198 2605 198 
L 1754 198 
C 1453 198 1440 243 1440 454 
L 1440 2163 
L 2016 2163 
C 2637 2163 2707 1958 2707 1414 
L 2867 1414 
L 2867 3110 
L 2707 3110 
C 2707 2560 2637 2362 2016 2362 
L 1440 2362 
L 1440 3898 
C 1440 4109 1453 4154 1754 4154 
L 2579 4154 
C 3558 4154 3731 3802 3834 2912 
L 3994 2912 
L 3814 4352 
L 211 4352 
L 211 4154 
L 365 4154 
C 858 4154 870 4083 870 3853 
L 870 499 
C 870 269 858 198 365 198 
L 211 198 
L 211 0 
L 3904 0 
L 4173 1651 
z
" transform="scale(0.015625)"/>
       <path id="LatinModernMath-Regular-2c" d="M 1299 6 
C 1299 429 1139 678 890 678 
C 678 678 550 518 550 339 
C 550 166 678 0 890 0 
C 966 0 1050 26 1114 83 
C 1133 96 1146 102 1146 102 
C 1146 102 1158 96 1158 6 
C 1158 -467 934 -851 723 -1062 
C 653 -1133 653 -1146 653 -1165 
C 653 -1210 685 -1235 717 -1235 
C 787 -1235 1299 -742 1299 6 
z
" transform="scale(0.015625)"/>
       <path id="LatinModernMath-Regular-4d" d="M 5626 0 
L 5626 198 
L 5472 198 
C 4979 198 4966 269 4966 499 
L 4966 3872 
C 4966 4102 4979 4173 5472 4173 
L 5626 4173 
L 5626 4371 
L 4544 4371 
C 4378 4371 4378 4365 4333 4250 
L 2931 646 
L 1542 4230 
C 1485 4371 1466 4371 1318 4371 
L 237 4371 
L 237 4173 
L 390 4173 
C 883 4173 896 4102 896 3872 
L 896 672 
C 896 499 896 198 237 198 
L 237 0 
L 986 19 
L 1734 0 
L 1734 198 
C 1075 198 1075 499 1075 672 
L 1075 4122 
L 1082 4122 
L 2624 141 
C 2656 58 2688 0 2752 0 
C 2822 0 2842 51 2867 122 
L 4442 4173 
L 4448 4173 
L 4448 499 
C 4448 269 4435 198 3942 198 
L 3789 198 
L 3789 0 
C 4026 19 4461 19 4710 19 
C 4960 19 5389 19 5626 0 
z
" transform="scale(0.015625)"/>
       <path id="LatinModernMath-Regular-56" d="M 4672 4173 
L 4672 4371 
C 4474 4358 4218 4352 4051 4352 
L 3322 4371 
L 3322 4173 
C 3654 4166 3789 4000 3789 3853 
C 3789 3802 3770 3763 3757 3725 
L 2586 640 
L 1363 3872 
C 1325 3962 1325 3987 1325 3987 
C 1325 4173 1690 4173 1850 4173 
L 1850 4371 
C 1619 4352 1178 4352 934 4352 
L 122 4371 
L 122 4173 
C 538 4173 659 4173 749 3930 
L 2234 0 
C 2278 -122 2310 -141 2394 -141 
C 2502 -141 2515 -109 2547 -19 
L 3974 3744 
C 4064 3981 4237 4166 4672 4173 
z
" transform="scale(0.015625)"/>
      </defs>
      <use xlink:href="#LatinModernMath-Regular-5c"/>
      <use xlink:href="#LatinModernMath-Regular-44" transform="translate(49.999985 0)"/>
      <use xlink:href="#LatinModernMath-Regular-65" transform="translate(126.399979 0)"/>
      <use xlink:href="#LatinModernMath-Regular-6c" transform="translate(170.799973 0)"/>
      <use xlink:href="#LatinModernMath-Regular-74" transform="translate(198.59996 0)"/>
      <use xlink:href="#LatinModernMath-Regular-61" transform="translate(237.499954 0)"/>
      <use xlink:href="#LatinModernMath-Regular-20" transform="translate(287.499939 0)"/>
      <use xlink:href="#LatinModernMath-Regular-45" transform="translate(320.699936 0)"/>
      <use xlink:href="#LatinModernMath-Regular-2c" transform="translate(388.799927 0)"/>
      <use xlink:href="#LatinModernMath-Regular-20" transform="translate(416.599915 0)"/>
      <use xlink:href="#LatinModernMath-Regular-4d" transform="translate(449.799911 0)"/>
      <use xlink:href="#LatinModernMath-Regular-65" transform="translate(541.499893 0)"/>
      <use xlink:href="#LatinModernMath-Regular-56" transform="translate(585.899887 0)"/>
     </g>
    </g>
   </g>
   <g id="matplotlib.axis_2">
    <g id="ytick_1">
     <g id="line2d_16">
      <defs>
       <path id="mc947610920" d="M 0 0 
L 6 0 
" style="stroke: #1a1a1a; stroke-width: 0.8"/>
      </defs>
      <g>
       <use xlink:href="#mc947610920" x="51.2" y="228.96" style="fill: #1a1a1a; stroke: #1a1a1a; stroke-width: 0.8"/>
      </g>
     </g>
     <g id="text_6">
      <!-- $\mathdefault{0}$ -->
      <g style="fill: #1a1a1a" transform="translate(38.7 234.165469) scale(0.15 -0.15)">
       <use xlink:href="#LatinModernMath-Regular-30" transform="translate(0 0.40625)"/>
      </g>
     </g>
    </g>
    <g id="ytick_2">
     <g id="line2d_17">
      <g>
       <use xlink:href="#mc947610920" x="51.2" y="178.674286" style="fill: #1a1a1a; stroke: #1a1a1a; stroke-width: 0.8"/>
      </g>
     </g>
     <g id="text_7">
      <!-- $\mathdefault{10}$ -->
      <g style="fill: #1a1a1a" transform="translate(31.2 183.879754) scale(0.15 -0.15)">
       <defs>
        <path id="LatinModernMath-Regular-31" d="M 2682 0 
L 2682 198 
L 2477 198 
C 1901 198 1882 269 1882 506 
L 1882 4096 
C 1882 4250 1882 4262 1734 4262 
C 1338 3853 774 3853 570 3853 
L 570 3654 
C 698 3654 1075 3654 1408 3821 
L 1408 506 
C 1408 275 1389 198 813 198 
L 608 198 
L 608 0 
C 832 19 1389 19 1645 19 
C 1901 19 2458 19 2682 0 
z
" transform="scale(0.015625)"/>
       </defs>
       <use xlink:href="#LatinModernMath-Regular-31" transform="translate(0 0.40625)"/>
       <use xlink:href="#LatinModernMath-Regular-30" transform="translate(49.999985 0.40625)"/>
      </g>
     </g>
    </g>
    <g id="ytick_3">
     <g id="line2d_18">
      <g>
       <use xlink:href="#mc947610920" x="51.2" y="128.388571" style="fill: #1a1a1a; stroke: #1a1a1a; stroke-width: 0.8"/>
      </g>
     </g>
     <g id="text_8">
      <!-- $\mathdefault{20}$ -->
      <g style="fill: #1a1a1a" transform="translate(31.2 133.59404) scale(0.15 -0.15)">
       <use xlink:href="#LatinModernMath-Regular-32" transform="translate(0 0.40625)"/>
       <use xlink:href="#LatinModernMath-Regular-30" transform="translate(49.999985 0.40625)"/>
      </g>
     </g>
    </g>
    <g id="ytick_4">
     <g id="line2d_19">
      <g>
       <use xlink:href="#mc947610920" x="51.2" y="78.102857" style="fill: #1a1a1a; stroke: #1a1a1a; stroke-width: 0.8"/>
      </g>
     </g>
     <g id="text_9">
      <!-- $\mathdefault{30}$ -->
      <g style="fill: #1a1a1a" transform="translate(31.2 83.308326) scale(0.15 -0.15)">
       <use xlink:href="#LatinModernMath-Regular-33" transform="translate(0 0.40625)"/>
       <use xlink:href="#LatinModernMath-Regular-30" transform="translate(49.999985 0.40625)"/>
      </g>
     </g>
    </g>
    <g id="ytick_5">
     <g id="line2d_20">
      <g>
       <use xlink:href="#mc947610920" x="51.2" y="27.817143" style="fill: #1a1a1a; stroke: #1a1a1a; stroke-width: 0.8"/>
      </g>
     </g>
     <g id="text_10">
      <!-- $\mathdefault{40}$ -->
      <g style="fill: #1a1a1a" transform="translate(31.2 33.022612) scale(0.15 -0.15)">
       <use xlink:href="#LatinModernMath-Regular-34" transform="translate(0 0.296875)"/>
       <use xlink:href="#LatinModernMath-Regular-30" transform="translate(49.999985 0.296875)"/>
      </g>
     </g>
    </g>
    <g id="ytick_6">
     <g id="line2d_21">
      <defs>
       <path id="m5f9d1e6504" d="M 0 0 
L 3 0 
" style="stroke: #1a1a1a; stroke-width: 0.6"/>
      </defs>
      <g>
       <use xlink:href="#m5f9d1e6504" x="51.2" y="218.902857" style="fill: #1a1a1a; stroke: #1a1a1a; stroke-width: 0.6"/>
      </g>
     </g>
    </g>
    <g id="ytick_7">
     <g id="line2d_22">
      <g>
       <use xlink:href="#m5f9d1e6504" x="51.2" y="208.845714" style="fill: #1a1a1a; stroke: #1a1a1a; stroke-width: 0.6"/>
      </g>
     </g>
    </g>
    <g id="ytick_8">
     <g id="line2d_23">
      <g>
       <use xlink:href="#m5f9d1e6504" x="51.2" y="198.788571" style="fill: #1a1a1a; stroke: #1a1a1a; stroke-width: 0.6"/>
      </g>
     </g>
    </g>
    <g id="ytick_9">
     <g id="line2d_24">
      <g>
       <use xlink:href="#m5f9d1e6504" x="51.2" y="188.731429" style="fill: #1a1a1a; stroke: #1a1a1a; stroke-width: 0.6"/>
      </g>
     </g>
    </g>
    <g id="ytick_10">
     <g id="line2d_25">
      <g>
       <use xlink:href="#m5f9d1e6504" x="51.2" y="168.617143" style="fill: #1a1a1a; stroke: #1a1a1a; stroke-width: 0.6"/>
      </g>
     </g>
    </g>
    <g id="ytick_11">
     <g id="line2d_26">
      <g>
       <use xlink:href="#m5f9d1e6504" x="51.2" y="158.56" style="fill: #1a1a1a; stroke: #1a1a1a; stroke-width: 0.6"/>
      </g>
     </g>
    </g>
    <g id="ytick_12">
     <g id="line2d_27">
      <g>
       <use xlink:href="#m5f9d1e6504" x="51.2" y="148.502857" style="fill: #1a1a1a; stroke: #1a1a1a; stroke-width: 0.6"/>
      </g>
     </g>
    </g>
    <g id="ytick_13">
     <g id="line2d_28">
      <g>
       <use xlink:href="#m5f9d1e6504" x="51.2" y="138.445714" style="fill: #1a1a1a; stroke: #1a1a1a; stroke-width: 0.6"/>
      </g>
     </g>
    </g>
    <g id="ytick_14">
     <g id="line2d_29">
      <g>
       <use xlink:href="#m5f9d1e6504" x="51.2" y="118.331429" style="fill: #1a1a1a; stroke: #1a1a1a; stroke-width: 0.6"/>
      </g>
     </g>
    </g>
    <g id="ytick_15">
     <g id="line2d_30">
      <g>
       <use xlink:href="#m5f9d1e6504" x="51.2" y="108.274286" style="fill: #1a1a1a; stroke: #1a1a1a; stroke-width: 0.6"/>
      </g>
     </g>
    </g>
    <g id="ytick_16">
     <g id="line2d_31">
      <g>
       <use xlink:href="#m5f9d1e6504" x="51.2" y="98.217143" style="fill: #1a1a1a; stroke: #1a1a1a; stroke-width: 0.6"/>
      </g>
     </g>
    </g>
    <g id="ytick_17">
     <g id="line2d_32">
      <g>
       <use xlink:href="#m5f9d1e6504" x="51.2" y="88.16" style="fill: #1a1a1a; stroke: #1a1a1a; stroke-width: 0.6"/>
      </g>
     </g>
    </g>
    <g id="ytick_18">
     <g id="line2d_33">
      <g>
       <use xlink:href="#m5f9d1e6504" x="51.2" y="68.045714" style="fill: #1a1a1a; stroke: #1a1a1a; stroke-width: 0.6"/>
      </g>
     </g>
    </g>
    <g id="ytick_19">
     <g id="line2d_34">
      <g>
       <use xlink:href="#m5f9d1e6504" x="51.2" y="57.988571" style="fill: #1a1a1a; stroke: #1a1a1a; stroke-width: 0.6"/>
      </g>
     </g>
    </g>
    <g id="ytick_20">
     <g id="line2d_35">
      <g>
       <use xlink:href="#m5f9d1e6504" x="51.2" y="47.931429" style="fill: #1a1a1a; stroke: #1a1a1a; stroke-width: 0.6"/>
      </g>
     </g>
    </g>
    <g id="ytick_21">
     <g id="line2d_36">
      <g>
       <use xlink:href="#m5f9d1e6504" x="51.2" y="37.874286" style="fill: #1a1a1a; stroke: #1a1a1a; stroke-width: 0.6"/>
      </g>
     </g>
    </g>
    <g id="ytick_22">
     <g id="line2d_37">
      <g>
       <use xlink:href="#m5f9d1e6504" x="51.2" y="17.76" style="fill: #1a1a1a; stroke: #1a1a1a; stroke-width: 0.6"/>
      </g>
     </g>
    </g>
    <g id="ytick_23">
     <g id="line2d_38">
      <g>
       <use xlink:href="#m5f9d1e6504" x="51.2" y="7.702857" style="fill: #1a1a1a; stroke: #1a1a1a; stroke-width: 0.6"/>
      </g>
     </g>
    </g>
    <g id="text_11">
     <!-- Entries/0.03 MeV -->
     <g style="fill: #1a1a1a" transform="translate(20.7 188.776406) rotate(-90) scale(0.18 -0.18)">
      <defs>
       <path id="LatinModernMath-Regular-6e" d="M 3424 0 
L 3424 198 
C 3091 198 2931 198 2925 390 
L 2925 1613 
C 2925 2163 2925 2362 2726 2592 
C 2637 2701 2426 2829 2054 2829 
C 1587 2829 1286 2554 1107 2157 
L 1107 2829 
L 205 2758 
L 205 2560 
C 653 2560 704 2515 704 2202 
L 704 486 
C 704 198 634 198 205 198 
L 205 0 
L 928 19 
L 1645 0 
L 1645 198 
C 1216 198 1146 198 1146 486 
L 1146 1664 
C 1146 2330 1600 2688 2010 2688 
C 2413 2688 2483 2342 2483 1978 
L 2483 486 
C 2483 198 2413 198 1984 198 
L 1984 0 
L 2707 19 
L 3424 0 
z
" transform="scale(0.015625)"/>
       <path id="LatinModernMath-Regular-72" d="M 2330 2438 
C 2330 2643 2131 2829 1856 2829 
C 1389 2829 1158 2400 1069 2125 
L 1069 2829 
L 179 2758 
L 179 2560 
C 627 2560 678 2515 678 2202 
L 678 486 
C 678 198 608 198 179 198 
L 179 0 
L 909 19 
C 1165 19 1466 19 1722 0 
L 1722 198 
L 1587 198 
C 1114 198 1101 269 1101 499 
L 1101 1485 
C 1101 2118 1370 2688 1856 2688 
C 1901 2688 1914 2688 1926 2682 
C 1907 2675 1779 2598 1779 2432 
C 1779 2253 1914 2157 2054 2157 
C 2170 2157 2330 2234 2330 2438 
z
" transform="scale(0.015625)"/>
       <path id="LatinModernMath-Regular-69" d="M 1581 0 
L 1581 198 
C 1158 198 1133 230 1133 480 
L 1133 2829 
L 237 2758 
L 237 2560 
C 653 2560 710 2522 710 2208 
L 710 486 
C 710 198 640 198 211 198 
L 211 0 
L 915 19 
C 1139 19 1363 6 1581 0 
z
M 1229 3866 
C 1229 4038 1082 4205 890 4205 
C 672 4205 544 4026 544 3866 
C 544 3693 691 3526 883 3526 
C 1101 3526 1229 3706 1229 3866 
z
" transform="scale(0.015625)"/>
       <path id="LatinModernMath-Regular-73" d="M 2304 819 
C 2304 1158 2112 1350 2035 1427 
C 1824 1632 1574 1683 1306 1734 
C 947 1805 518 1888 518 2259 
C 518 2483 685 2746 1235 2746 
C 1939 2746 1971 2170 1984 1971 
C 1990 1914 2061 1914 2061 1914 
C 2144 1914 2144 1946 2144 2067 
L 2144 2714 
C 2144 2822 2144 2867 2074 2867 
C 2042 2867 2029 2867 1946 2790 
C 1926 2765 1862 2707 1837 2688 
C 1594 2867 1331 2867 1235 2867 
C 454 2867 211 2438 211 2080 
C 211 1856 314 1677 486 1536 
C 691 1370 870 1331 1331 1242 
C 1472 1216 1997 1114 1997 653 
C 1997 326 1773 70 1274 70 
C 736 70 506 435 384 979 
C 365 1062 358 1088 294 1088 
C 211 1088 211 1043 211 928 
L 211 83 
C 211 -26 211 -70 282 -70 
C 314 -70 320 -64 442 58 
C 454 70 454 83 570 205 
C 851 -64 1139 -70 1274 -70 
C 2010 -70 2304 358 2304 819 
z
" transform="scale(0.015625)"/>
       <path id="LatinModernMath-Regular-2f" d="M 2848 4672 
C 2848 4742 2790 4800 2720 4800 
C 2662 4800 2618 4768 2598 4717 
L 365 -1427 
C 358 -1440 358 -1459 358 -1472 
C 358 -1542 416 -1600 486 -1600 
C 544 -1600 589 -1568 608 -1517 
L 2842 4627 
C 2848 4640 2848 4659 2848 4672 
z
" transform="scale(0.015625)"/>
      </defs>
      <use xlink:href="#LatinModernMath-Regular-45"/>
      <use xlink:href="#LatinModernMath-Regular-6e" transform="translate(68.099991 0)"/>
      <use xlink:href="#LatinModernMath-Regular-74" transform="translate(123.699982 0)"/>
      <use xlink:href="#LatinModernMath-Regular-72" transform="translate(162.599976 0)"/>
      <use xlink:href="#LatinModernMath-Regular-69" transform="translate(201.799973 0)"/>
      <use xlink:href="#LatinModernMath-Regular-65" transform="translate(229.59996 0)"/>
      <use xlink:href="#LatinModernMath-Regular-73" transform="translate(273.999954 0)"/>
      <use xlink:href="#LatinModernMath-Regular-2f" transform="translate(313.399948 0)"/>
      <use xlink:href="#LatinModernMath-Regular-30" transform="translate(363.399933 0)"/>
      <use xlink:href="#LatinModernMath-Regular-2e" transform="translate(413.399918 0)"/>
      <use xlink:href="#LatinModernMath-Regular-30" transform="translate(441.199905 0)"/>
      <use xlink:href="#LatinModernMath-Regular-33" transform="translate(491.19989 0)"/>
      <use xlink:href="#LatinModernMath-Regular-20" transform="translate(541.199875 0)"/>
      <use xlink:href="#LatinModernMath-Regular-4d" transform="translate(574.399872 0)"/>
      <use xlink:href="#LatinModernMath-Regular-65" transform="translate(666.099854 0)"/>
      <use xlink:href="#LatinModernMath-Regular-56" transform="translate(710.499847 0)"/>
     </g>
    </g>
   </g>
   <g id="legend_1">
    <g id="patch_9">
     <path d="M 296.0975 26.4 
L 320.0975 26.4 
L 320.0975 18 
L 296.0975 18 
L 296.0975 26.4 
z
" style="fill: none; stroke: #348abd; stroke-width: 1.2; stroke-linejoin: miter"/>
    </g>
    <g id="text_12">
     <!-- PHI2018 -->
     <g style="fill: #1a1a1a" transform="translate(329.6975 26.4) scale(0.12 -0.12)">
      <defs>
       <path id="LatinModernMath-Regular-50" d="M 3994 3181 
C 3994 3808 3360 4371 2483 4371 
L 224 4371 
L 224 4173 
L 378 4173 
C 870 4173 883 4102 883 3872 
L 883 499 
C 883 269 870 198 378 198 
L 224 198 
L 224 0 
C 448 19 922 19 1165 19 
C 1408 19 1888 19 2112 0 
L 2112 198 
L 1958 198 
C 1466 198 1453 269 1453 499 
L 1453 2022 
L 2534 2022 
C 3302 2022 3994 2541 3994 3181 
z
M 3334 3181 
C 3334 2880 3334 2189 2317 2189 
L 1434 2189 
L 1434 3917 
C 1434 4128 1446 4173 1747 4173 
L 2317 4173 
C 3334 4173 3334 3494 3334 3181 
z
" transform="scale(0.015625)"/>
       <path id="LatinModernMath-Regular-48" d="M 4582 0 
L 4582 198 
L 4429 198 
C 3936 198 3923 269 3923 499 
L 3923 3872 
C 3923 4102 3936 4173 4429 4173 
L 4582 4173 
L 4582 4371 
C 4358 4352 3885 4352 3642 4352 
C 3398 4352 2918 4352 2694 4371 
L 2694 4173 
L 2848 4173 
C 3341 4173 3354 4102 3354 3872 
L 3354 2374 
L 1440 2374 
L 1440 3872 
C 1440 4102 1453 4173 1946 4173 
L 2099 4173 
L 2099 4371 
C 1875 4352 1402 4352 1158 4352 
C 915 4352 435 4352 211 4371 
L 211 4173 
L 365 4173 
C 858 4173 870 4102 870 3872 
L 870 499 
C 870 269 858 198 365 198 
L 211 198 
L 211 0 
C 435 19 909 19 1152 19 
C 1395 19 1875 19 2099 0 
L 2099 198 
L 1946 198 
C 1453 198 1440 269 1440 499 
L 1440 2176 
L 3354 2176 
L 3354 499 
C 3354 269 3341 198 2848 198 
L 2694 198 
L 2694 0 
C 2918 19 3392 19 3635 19 
C 3878 19 4358 19 4582 0 
z
" transform="scale(0.015625)"/>
       <path id="LatinModernMath-Regular-49" d="M 2131 0 
L 2131 198 
L 1965 198 
C 1459 198 1440 269 1440 499 
L 1440 3872 
C 1440 4102 1459 4173 1965 4173 
L 2131 4173 
L 2131 4371 
C 1907 4352 1402 4352 1158 4352 
C 909 4352 403 4352 179 4371 
L 179 4173 
L 346 4173 
C 851 4173 870 4102 870 3872 
L 870 499 
C 870 269 851 198 346 198 
L 179 198 
L 179 0 
C 403 19 909 19 1152 19 
C 1402 19 1907 19 2131 0 
z
" transform="scale(0.015625)"/>
      </defs>
      <use xlink:href="#LatinModernMath-Regular-50"/>
      <use xlink:href="#LatinModernMath-Regular-48" transform="translate(68.099991 0)"/>
      <use xlink:href="#LatinModernMath-Regular-49" transform="translate(143.099976 0)"/>
      <use xlink:href="#LatinModernMath-Regular-32" transform="translate(179.199966 0)"/>
      <use xlink:href="#LatinModernMath-Regular-30" transform="translate(229.199951 0)"/>
      <use xlink:href="#LatinModernMath-Regular-31" transform="translate(279.199936 0)"/>
      <use xlink:href="#LatinModernMath-Regular-38" transform="translate(329.199921 0)"/>
     </g>
    </g>
    <g id="patch_10">
     <path d="M 296.0975 43.12875 
L 320.0975 43.12875 
L 320.0975 34.72875 
L 296.0975 34.72875 
L 296.0975 43.12875 
z
" style="fill: none; stroke: #e24a33; stroke-width: 1.2; stroke-linejoin: miter"/>
    </g>
    <g id="text_13">
     <!-- PHI2024 -->
     <g style="fill: #1a1a1a" transform="translate(329.6975 43.12875) scale(0.12 -0.12)">
      <use xlink:href="#LatinModernMath-Regular-50"/>
      <use xlink:href="#LatinModernMath-Regular-48" transform="translate(68.099991 0)"/>
      <use xlink:href="#LatinModernMath-Regular-49" transform="translate(143.099976 0)"/>
      <use xlink:href="#LatinModernMath-Regular-32" transform="translate(179.199966 0)"/>
      <use xlink:href="#LatinModernMath-Regular-30" transform="translate(229.199951 0)"/>
      <use xlink:href="#LatinModernMath-Regular-32" transform="translate(279.199936 0)"/>
      <use xlink:href="#LatinModernMath-Regular-34" transform="translate(329.199921 0)"/>
     </g>
    </g>
   </g>
  </g>
 </g>
 <defs>
  <clipPath id="pf325dec06b">
   <rect x="51.2" y="7.2" width="334.8" height="221.76"/>
  </clipPath>
 </defs>
</svg>
